<?xml version="1.0" encoding="utf-8"?>
<!-- Generator: Adobe Illustrator 26.3.1, SVG Export Plug-In . SVG Version: 6.00 Build 0)  -->
<svg version="1.1" id="Layer_1" xmlns="http://www.w3.org/2000/svg" xmlns:xlink="http://www.w3.org/1999/xlink" x="0px" y="0px"
	 viewBox="0 0 314.02 84.16" style="enable-background:new 0 0 314.02 84.16;" xml:space="preserve">
<style type="text/css">
	.st0{fill:#572C86;}
	.st1{fill:#FFFFFF;}
</style>
<rect x="92.26" y="10.86" class="st0" width="3.99" height="13.71"/>
<path class="st0" d="M103.03,24.33h32.39V6.16h-4v14.56h-24.2c0-0.02,0-0.04,0.01-0.06c0.07-0.37,0.24-4.57,5.4-4.57h-0.19v-3.69
	l0.13,0.01c-9.16,0-9.55,6.91-9.55,8.32L103.03,24.33z"/>
<path class="st0" d="M140.28,12.47l0.05,10.91c0,1.24-0.32,2.19-0.97,2.83c-0.65,0.64-1.65,0.96-3,0.96h-1.02v3.14l1.12,0
	c1.29,0,2.43-0.14,3.4-0.41c0.97-0.28,1.78-0.71,2.43-1.3c0.65-0.59,1.13-1.34,1.45-2.27c0.32-0.93,0.48-2.05,0.48-3.36V12.47
	H140.28z"/>
<path class="st0" d="M68.35,20.68h-4.58c0-4.88,4.58-4.54,4.58-4.54V20.68z M89.26,12.63h-4v8.32h-12.9v-8.42h-0.02v-0.01
	l-3.92,0.04c-7.05,0.39-8.46,4.33-8.46,8.41v3.43h8.39h0.05c-0.13,0.78-0.42,1.4-0.89,1.87c-0.65,0.64-1.65,0.96-3,0.96h-2.62v3.14
	l2.73,0c1.29,0,2.43-0.14,3.4-0.41c0.97-0.28,1.78-0.71,2.43-1.3c0.65-0.59,1.13-1.34,1.45-2.27c0.19-0.54,0.31-1.15,0.39-1.83
	h16.98V12.63z"/>
<path class="st0" d="M155.15,20.68h-4.58c0-4.88,4.58-4.54,4.58-4.54V20.68z M173.32,12.63h-3.99v8.32h-10.15v-8.42h-0.03v-0.01
	l-3.92,0.04c-7.05,0.39-8.46,4.33-8.46,8.41v3.43h8.38h0.05c-0.13,0.78-0.42,1.4-0.89,1.87c-0.65,0.64-1.65,0.96-3,0.96h-2.62v3.14
	l2.73,0c1.3,0,2.43-0.14,3.4-0.41c0.97-0.28,1.78-0.71,2.43-1.3c0.65-0.59,1.13-1.34,1.46-2.27c0.18-0.54,0.31-1.15,0.39-1.83h14.24
	V12.63z"/>
<path class="st0" d="M184.76,20.68h-4.58c0-4.88,4.58-4.54,4.58-4.54V20.68z M211.38,12.63v8.32h-9.9v-8.32h-4v8.32h-8.7v-8.42
	h-0.02v-0.01l-3.92,0.04c-7.05,0.39-8.46,4.33-8.46,8.41v3.43h8.38h0.05c-0.13,0.78-0.43,1.4-0.89,1.87c-0.65,0.64-1.65,0.96-3,0.96
	h-2.63v3.14l2.74,0c1.29,0,2.42-0.14,3.39-0.41c0.97-0.28,1.78-0.71,2.43-1.3c0.65-0.59,1.13-1.34,1.45-2.27
	c0.19-0.54,0.31-1.15,0.39-1.83h10.92h1.86h13.9V12.63H211.38z"/>
<path class="st0" d="M50.9,20.71h-7.74V16.1h7.67c2.81,0,3.21,1.66,3.21,2.34C54.03,19.08,53.98,20.71,50.9,20.71 M51.17,12.49
	h-8.01V5.38h-3.99v7.11v8.34H26.48v-8.35l-14.18,0v3.72h0.12c3.13,0.02,4.1,1.4,4.1,2.65c0,2.08-2.62,3-5.23,2.94H9.9
	c-6.07,0-5.74-4.02-5.74-4.02v-5.28h-4.19l-0.01,5.7c0,3.86,4.44,6.74,9.33,6.74h2.59c8.82,0,8.6-5.92,8.6-5.92
	c0.04-1.07-0.22-2-0.69-2.81h2.68v8.17l28.3-0.01c6.91,0,7.32-4.91,7.32-5.89C58.09,18.47,58.36,12.49,51.17,12.49"/>
<path class="st0" d="M49.57,9.19c0,1.03-0.84,1.87-1.87,1.87c-1.03,0-1.87-0.84-1.87-1.87c0-1.03,0.84-1.87,1.87-1.87
	C48.73,7.32,49.57,8.16,49.57,9.19"/>
<path class="st0" d="M215.15,9.19c0,1.03-0.84,1.87-1.87,1.87c-1.03,0-1.86-0.84-1.86-1.87c0-1.03,0.83-1.87,1.86-1.87
	C214.32,7.32,215.15,8.16,215.15,9.19"/>
<path class="st0" d="M22.62,28.44c0,1.03-0.84,1.87-1.86,1.87c-1.03,0-1.87-0.83-1.87-1.87c0-1.03,0.83-1.87,1.87-1.87
	C21.78,26.57,22.62,27.41,22.62,28.44"/>
<path class="st0" d="M86.03,28.58c0,1.03-0.84,1.87-1.87,1.87c-1.03,0-1.87-0.84-1.87-1.87c0-1.03,0.84-1.87,1.87-1.87
	C85.19,26.71,86.03,27.55,86.03,28.58"/>
<path class="st0" d="M10.24,28.44c0,1.03-0.83,1.87-1.87,1.87c-1.03,0-1.87-0.83-1.87-1.87c0-1.03,0.84-1.87,1.87-1.87
	C9.4,26.57,10.24,27.41,10.24,28.44"/>
<path class="st0" d="M14.51,28.44c0,1.03-0.83,1.87-1.87,1.87c-1.03,0-1.87-0.83-1.87-1.87c0-1.03,0.84-1.87,1.87-1.87
	C13.68,26.57,14.51,27.41,14.51,28.44"/>
<path class="st0" d="M167.51,28.58c0,1.03-0.84,1.87-1.87,1.87c-1.03,0-1.87-0.84-1.87-1.87c0-1.03,0.84-1.87,1.87-1.87
	C166.67,26.71,167.51,27.55,167.51,28.58"/>
<path class="st0" d="M171.78,28.58c0,1.03-0.83,1.87-1.87,1.87c-1.03,0-1.87-0.84-1.87-1.87c0-1.03,0.84-1.87,1.87-1.87
	C170.95,26.71,171.78,27.55,171.78,28.58"/>
<path class="st0" d="M197.43,28.58c0,1.03-0.84,1.87-1.87,1.87c-1.03,0-1.87-0.84-1.87-1.87c0-1.03,0.84-1.87,1.87-1.87
	C196.59,26.71,197.43,27.55,197.43,28.58"/>
<path class="st0" d="M201.7,28.58c0,1.03-0.84,1.87-1.87,1.87c-1.03,0-1.87-0.84-1.87-1.87c0-1.03,0.84-1.87,1.87-1.87
	C200.87,26.71,201.7,27.55,201.7,28.58"/>
<path class="st0" d="M94.45,8.85V8.83c0-0.18,0.03-0.36,0.09-0.53C94.6,8.14,94.69,8,94.79,7.87c0.11-0.12,0.24-0.22,0.38-0.29
	c0.14-0.07,0.3-0.1,0.72-0.11V6.25c-0.62,0-0.97,0.07-1.28,0.2c-0.32,0.14-0.6,0.32-0.83,0.56c-0.23,0.24-0.41,0.51-0.54,0.83
	c-0.13,0.32-0.2,0.66-0.2,1.01v0.02c0,0.02,0.01,0.04,0.01,0.06h-0.8v1.3h4.05v-1.3h-1.85C94.46,8.91,94.45,8.88,94.45,8.85"/>
<path class="st0" d="M120.58,15.51v-0.03c0-0.25,0.04-0.48,0.12-0.7c0.08-0.22,0.19-0.41,0.34-0.58c0.14-0.17,0.32-0.3,0.51-0.39
	c0.19-0.09,0.4-0.14,0.96-0.14v-1.63c-0.83,0-1.29,0.09-1.71,0.27c-0.43,0.18-0.79,0.43-1.1,0.75c-0.31,0.32-0.55,0.69-0.73,1.11
	c-0.18,0.42-0.26,0.87-0.26,1.35v0.03c0,0.03,0.01,0.05,0.01,0.08h-1.06v1.73h5.4v-1.73h-2.46
	C120.58,15.58,120.58,15.55,120.58,15.51"/>
<path class="st0" d="M304.47,12.4l-5.6-0.01v3.69h5.55c5.16,0,5.33,4.21,5.4,4.57c0,0.02,0,0.04,0.01,0.06h-19.71V6.16h-4v18.16
	h27.9l0-3.6C314.02,19.31,313.63,12.4,304.47,12.4"/>
<path class="st0" d="M304.19,26.71c-1.03,0-1.87,0.84-1.87,1.87c0,1.03,0.84,1.87,1.87,1.87c1.03,0,1.87-0.84,1.87-1.87
	C306.06,27.55,305.22,26.71,304.19,26.71"/>
<path class="st0" d="M229.24,11.06c1.03,0,1.86-0.84,1.86-1.87c0-1.03-0.84-1.87-1.86-1.87c-1.03,0-1.87,0.84-1.87,1.87
	C227.37,10.22,228.21,11.06,229.24,11.06"/>
<path class="st0" d="M233.51,11.06c1.03,0,1.87-0.84,1.87-1.87c0-1.03-0.84-1.87-1.87-1.87c-1.03,0-1.87,0.84-1.87,1.87
	C231.64,10.22,232.48,11.06,233.51,11.06"/>
<path class="st0" d="M274.89,20.7v-4.81c0,0,4.57-0.34,4.57,4.81H274.89z M226.46,20.72c-0.01-0.57-0.16-4.67,5.57-4.67h0.61v4.67
	H226.46z M274.81,12.32l-3.92-0.04v0.01h-0.02v8.42h-15.37c-0.09-0.35-0.15-0.72-0.15-1.1v-0.05c0-0.52,0.08-1.01,0.24-1.47
	c0.16-0.46,0.4-0.86,0.7-1.21c0.3-0.34,0.66-0.62,1.07-0.82c0.41-0.2,0.86-0.3,1.36-0.3c0.71,0,1.3,0.14,1.78,0.42
	c0.47,0.27,0.93,0.65,1.39,1.11l2.41-2.59c-0.66-0.73-1.42-1.3-2.28-1.71c-0.86-0.42-1.95-0.62-3.27-0.62
	c-1.07,0-2.05,0.19-2.94,0.57c-0.89,0.38-1.66,0.9-2.3,1.56s-1.14,1.43-1.51,2.31c-0.36,0.88-0.55,1.82-0.55,2.81v0.05
	c0,0.36,0.04,0.71,0.08,1.06h-14.9v-8.27h-4.6c-8.09,0-9.46,5.93-9.63,8.27h-0.01v0.18c-0.01,0.25-0.01,0.45,0,0.58v0.05h0v2.8h60.9
	v-3.61h-0.01C283.26,16.64,281.85,12.72,274.81,12.32"/>
<path class="st0" d="M149.58,65.77l-3.03-7.39l-3.03,7.39H149.58z M144.3,52.36h4.62l9.77,22.95h-5.24l-2.08-5.11h-9.64l-2.08,5.11
	h-5.11L144.3,52.36z"/>
<path class="st0" d="M171.79,70.92c2.22,0,3.55-0.78,3.55-2.48v-0.06c0-1.53-1.14-2.48-3.71-2.48h-5.79v5.01H171.79z M170.46,61.74
	c2.21,0,3.62-0.72,3.62-2.41v-0.07c0-1.5-1.17-2.34-3.29-2.34h-4.95v4.82H170.46z M160.96,52.52h10.58c2.61,0,4.66,0.72,5.96,2.02
	c1.04,1.04,1.57,2.31,1.57,3.88v0.07c0,2.57-1.37,4-3,4.91c2.64,1.01,4.27,2.54,4.27,5.6v0.07c0,4.17-3.39,6.25-8.53,6.25h-10.84
	V52.52z"/>
<path class="st0" d="M182.3,65.55V52.52h5.01v12.89c0,3.71,1.86,5.63,4.92,5.63c3.06,0,4.91-1.86,4.91-5.47V52.52h5.01v12.86
	c0,6.9-3.87,10.29-9.99,10.29C186.04,75.67,182.3,72.25,182.3,65.55"/>
<path class="st0" d="M221.42,70.78c4.1,0,6.87-2.76,6.87-6.8v-0.07c0-4.04-2.77-6.87-6.87-6.87h-3.87v13.73H221.42z M212.53,52.52
	h8.89c7.16,0,12.11,4.92,12.11,11.33v0.07c0,6.41-4.95,11.4-12.11,11.4h-8.89V52.52z"/>
<polygon class="st0" points="235.98,52.52 240.99,52.52 240.99,61.54 250.23,61.54 250.23,52.52 255.24,52.52 255.24,75.31 
	250.23,75.31 250.23,66.17 240.99,66.17 240.99,75.31 235.98,75.31 "/>
<path class="st0" d="M272.97,65.77l-3.03-7.39l-3.03,7.39H272.97z M267.7,52.36h4.62l9.76,22.95h-5.24l-2.09-5.11h-9.63l-2.09,5.11
	h-5.11L267.7,52.36z"/>
<path class="st0" d="M295.62,70.92c2.22,0,3.55-0.78,3.55-2.48v-0.06c0-1.53-1.14-2.48-3.72-2.48h-5.79v5.01H295.62z M294.29,61.74
	c2.21,0,3.61-0.72,3.61-2.41v-0.07c0-1.5-1.17-2.34-3.29-2.34h-4.95v4.82H294.29z M284.78,52.52h10.58c2.6,0,4.66,0.72,5.96,2.02
	c1.04,1.04,1.56,2.31,1.56,3.88v0.07c0,2.57-1.37,4-3,4.91c2.64,1.01,4.26,2.54,4.26,5.6v0.07c0,4.17-3.38,6.25-8.53,6.25h-10.84
	V52.52z"/>
<rect x="306.71" y="52.52" class="st0" width="5.01" height="22.79"/>
<rect x="127.89" y="44.14" class="st0" width="0.87" height="40.02"/>
<polygon class="st0" points="50.4,52.6 55.01,52.6 65.66,66.6 65.66,52.6 70.59,52.6 70.59,75.34 66.34,75.34 55.33,60.88 
	55.33,75.34 50.4,75.34 "/>
<polygon class="st0" points="81.83,66.37 73.09,52.6 78.94,52.6 84.36,61.73 89.88,52.6 95.56,52.6 86.82,66.28 86.82,75.34 
	81.83,75.34 "/>
<path class="st0" d="M97.7,65.59V52.6h5v12.86c0,3.7,1.85,5.62,4.9,5.62c3.05,0,4.9-1.85,4.9-5.45V52.6h5v12.83
	c0,6.88-3.86,10.26-9.97,10.26C101.43,75.69,97.7,72.28,97.7,65.59"/>
<rect x="4.36" y="48.7" class="st1" width="27.67" height="34.1"/>
<path class="st0" d="M17.63,65.01c-4.1-2.45-3.69-5.94-1.99-8.51c0.04-0.05,0.05-0.14,0.04-0.25c-0.07-0.61-0.74-2.16-1.02-2.58
	c-0.07-0.11-0.13-0.1-0.14-0.02c-0.02,0.7-0.82,2.45-2.04,4.47c-1.29,2.15-1.3,6.81,5.13,6.99C17.68,65.11,17.7,65.05,17.63,65.01
	 M18.73,64.83c-2.45-5.24,2.45-8.62,3.25-9.36c0.11-0.1,0.08-0.2,0.08-0.32c0-1.65-0.94-4.32-1.25-4.7
	c-0.04-0.06-0.08-0.03-0.1,0.03c-0.42,1.63-2.65,4.05-3.1,4.58c-3.79,4.5-2.92,7.24,1.03,9.83C18.7,64.92,18.76,64.89,18.73,64.83
	 M19.53,64.61c1.16-5.56,5.68-5.69,6.08-6.75c0.63-1.64-0.52-4.56-0.82-4.91c-0.03-0.04-0.07-0.01-0.08,0.02
	c-0.62,1.35-1.61,2.63-2.34,3.22c-1.02,0.83-4.95,3.74-2.94,8.42C19.46,64.67,19.51,64.65,19.53,64.61 M20.33,65.09
	c7.32,0.26,7.84-6.41,7.87-8.91c0-0.15-0.07-0.16-0.1-0.06c-0.22,0.52-1.17,2.38-3.81,3.52c-2.36,1.01-3.78,3.31-4.02,5.37
	C20.26,65.06,20.3,65.09,20.33,65.09 M22,65.91h-5.78v1.68H22V65.91z M18.62,79.48c0.05,0.28,0.65,0.42,0.79,0l1.4-11.09h-3.4
	L18.62,79.48z M40.02,84.16H0V44.14h40.02V84.16z"/>
</svg>
