<svg xmlns="http://www.w3.org/2000/svg" viewBox="0 0 32 32"><path d="M20.842 16.139c0 2.584-2.163 4.68-4.831 4.68-2.666 0-4.83-2.097-4.83-4.68 0-.464.071-.911.201-1.334l-1.211-.263v6.801c0 .341.146.486.486.486h10.687c.34 0 .486-.145.486-.486v-6.801l-1.188.263c.129.424.2.87.2 1.334z"/><ellipse cx="16.011" cy="15.971" rx="3.121" ry="3.025"/><path d="M16 0C7.164 0 0 7.163 0 16s7.164 16 16 16 16-7.164 16-16S24.836 0 16 0zm7.773 21.829a1.913 1.913 0 0 1-1.943 1.943H10.171a1.913 1.913 0 0 1-1.943-1.943V10.17c0-1.097.846-1.943 1.943-1.943H21.83c1.097 0 1.943.846 1.943 1.943v11.659z"/><path d="M21.344 10.17H19.4a.485.485 0 0 0-.486.486v1.943c0 .269.217.486.486.486h1.943a.485.485 0 0 0 .486-.486v-1.943a.486.486 0 0 0-.485-.486z"/></svg>