<?xml version="1.0" encoding="utf-8"?>
<!-- Generator: Adobe Illustrator 26.3.1, SVG Export Plug-In . SVG Version: 6.00 Build 0)  -->
<svg version="1.1" id="Layer_1" xmlns="http://www.w3.org/2000/svg" xmlns:xlink="http://www.w3.org/1999/xlink" x="0px" y="0px"
	 viewBox="0 0 314.02 84.16" style="enable-background:new 0 0 314.02 84.16;" xml:space="preserve">
<style type="text/css">
	.st0{fill:#5C0F8B;}
	.st1{fill:#FFFFFF;}
</style>
<g>
	<polygon class="st0" points="0,24.05 0,20.82 9.18,20.82 9.18,1.21 13.25,1.21 13.25,8.09 22.42,8.09 22.42,11.64 13.25,11.64 
		13.25,20.82 23.99,20.82 23.99,24.05 0,24.05 	"/>
	<path class="st0" d="M75.3,11.64l-1.56,1.67h3.23c0-1.11,0.03-2.3,0.1-3.55h-4.59c0.28,0.14,0.73,0.45,1.36,0.94
		C74.47,11.12,74.96,11.43,75.3,11.64L75.3,11.64z M75.3,17.79l-1.56,1.46h3.13c0-1.04,0.03-2.19,0.11-3.44h-4.59
		c0.28,0.14,0.8,0.49,1.56,1.04C74.5,17.27,74.96,17.58,75.3,17.79L75.3,17.79z M70.3,11.22l1.46-1.46h-2.61l-0.42,3.55h4.17
		C71.93,12.47,71.06,11.78,70.3,11.22L70.3,11.22z M70.2,17.27l1.56-1.46h-3.23l-0.31,3.44h4.59C71.9,18.56,71.03,17.9,70.2,17.27
		L70.2,17.27z M63.21,15.81v-2.5h2.3l0.42-3.96c-0.42,0.35-0.84,0.73-1.25,1.15c-0.56-0.77-1.22-1.63-1.98-2.61
		c2.22-2.23,3.86-4.52,4.9-6.88l3.55,0.52c-0.14,0.21-0.35,0.56-0.63,1.04c-0.07,0.14-0.1,0.24-0.1,0.31h11.37v2.71H68.74
		c-0.14,0.21-0.35,0.52-0.63,0.94c-0.21,0.28-0.38,0.52-0.52,0.73h12.83c-0.07,2.02-0.11,4.04-0.11,6.05h1.98v2.5h-1.98
		c-0.07,1.11-0.1,2.26-0.1,3.44h1.88v2.5H80.1c0,1.11-0.28,1.91-0.84,2.4c-0.42,0.56-1.29,0.87-2.61,0.94
		c-0.62,0.07-2.22,0.1-4.8,0.1c-0.07-0.28-0.18-0.7-0.31-1.25c-0.21-0.56-0.35-0.97-0.42-1.25c1.59,0,2.85,0,3.75,0
		c0.84,0,1.39-0.03,1.67-0.1c0.14-0.21,0.21-0.49,0.21-0.83h-12.1l0.52-5.95H63.21L63.21,15.81z M58.31,3.4l2.19-2.3
		c1.25,0.91,2.57,1.95,3.96,3.13l-2.3,2.51c-0.56-0.56-1.46-1.36-2.71-2.4C58.97,3.92,58.58,3.61,58.31,3.4L58.31,3.4z M60.6,15.08
		c0.55,0.28,1.49,0.63,2.82,1.04c0.14,0.07,0.24,0.1,0.31,0.1c-0.21,0.84-0.52,2.09-0.94,3.75c-0.56,2.3-1.01,4.03-1.36,5.22
		c-0.21-0.07-0.52-0.17-0.94-0.31c-1.04-0.35-1.81-0.56-2.29-0.63C59.04,21.69,59.83,18.63,60.6,15.08L60.6,15.08z M57.68,10.08
		l1.98-2.4c1.25,0.91,2.57,1.95,3.96,3.13l-2.29,2.71C60.84,12.96,59.63,11.81,57.68,10.08L57.68,10.08z"/>
	<path class="st0" d="M292.27,2.78L294.87,1c1.04,1.11,2.08,2.36,3.13,3.75l-1.15,0.73h4.17c-0.28-0.49-0.7-1.18-1.25-2.09
		c-0.35-0.56-0.59-0.97-0.73-1.25l3.03-1.35c0.21,0.28,0.52,0.8,0.94,1.56c0.62,0.97,1.11,1.74,1.46,2.3l-1.77,0.83h3.02
		c0.63-0.83,1.42-2.01,2.4-3.55c0.21-0.35,0.38-0.59,0.52-0.73l3.34,1.88c-0.21,0.28-0.52,0.66-0.94,1.15
		c-0.49,0.56-0.83,0.98-1.04,1.25h3.55v6.15h-3.44V8.51h-16.27v3.13h-3.44V5.49h4.07C293.76,4.51,293.03,3.61,292.27,2.78
		L292.27,2.78z M289.97,19.15v-3.02h10.84V15.5l3.34-2.19h-9.07v-3.02h13.98v3.02l-4.28,2.82h9.18v3.02h-9.59v2.61
		c0,2.15-1.15,3.27-3.44,3.34c-1.6,0.07-3.1,0.1-4.48,0.1c-0.21-1.18-0.49-2.23-0.83-3.13c1.25,0.07,2.4,0.1,3.44,0.1
		c1.18,0,1.78-0.49,1.78-1.46v-1.56H289.97L289.97,19.15z"/>
	<path class="st0" d="M232.08,10.81V7.36h9.8c0.14-1.81,0.21-3.89,0.21-6.26h3.75c0,0.77-0.04,1.81-0.1,3.13
		c0,1.46-0.04,2.51-0.11,3.13h10.22v3.44h-10.01c1.46,5.56,4.94,9.28,10.43,11.16c-1.25,1.18-2.22,2.26-2.92,3.23
		c-4.59-2.16-7.72-5.49-9.39-10.01c-1.39,4.24-4.55,7.61-9.49,10.12c-0.07-0.07-0.21-0.24-0.42-0.52c-0.9-1.04-1.7-1.84-2.39-2.4
		c6.05-2.71,9.35-6.57,9.91-11.58H232.08L232.08,10.81z"/>
	<path class="st0" d="M185.25,12.27l2.71-1.88c1.67,2.09,3.06,4.07,4.17,5.94l-3.02,1.88C187.92,16.12,186.64,14.14,185.25,12.27
		L185.25,12.27z M182.85,9.97c1.46-2.29,2.78-5.32,3.96-9.07c1.25,0.28,2.44,0.59,3.55,0.94c-0.14,0.28-0.31,0.73-0.52,1.36
		c-0.28,0.77-0.49,1.32-0.63,1.67h8.03c0,6.19-0.11,11.47-0.31,15.85c-0.14,2.43-1.36,3.75-3.65,3.96c-0.49,0-1.29,0-2.4,0
		c-1.18,0.07-2.08,0.1-2.71,0.1c-0.07-0.21-0.14-0.49-0.21-0.84c-0.28-1.04-0.52-1.88-0.73-2.5c2.22,0.07,3.75,0.1,4.59,0.1
		c1.11,0,1.7-0.63,1.77-1.88c0-0.7,0.03-1.77,0.11-3.24c0.14-3.54,0.21-6.32,0.21-8.34h-6.05c-0.14,0.28-0.35,0.7-0.63,1.25
		c-0.21,0.42-0.59,1.18-1.15,2.29C185.25,11.01,184.16,10.46,182.85,9.97L182.85,9.97z M174.19,24.15l-0.52-3.23
		c1.53-0.21,4.45-0.59,8.76-1.15c0.83-0.14,1.46-0.24,1.88-0.32c0,0.07,0,0.18,0,0.32c-0.14,1.18-0.18,2.15-0.11,2.92
		C180.65,23.11,177.32,23.6,174.19,24.15L174.19,24.15z M177.42,8.62c0.14,0,0.38,0,0.73,0c0.56-0.07,0.97-0.1,1.25-0.1
		c0.14-0.21,0.31-0.52,0.52-0.94c0.42-0.83,0.77-1.46,1.04-1.88l2.92,1.46c-1.88,3.34-3.62,6.05-5.22,8.13
		c0.14,0,0.34-0.03,0.62-0.1c0.35,0,1.81-0.21,4.38-0.63c-0.21,1.25-0.31,2.26-0.31,3.02c-4.24,0.49-6.95,0.9-8.13,1.25l-1.25-2.92
		c0.76-0.28,2.02-1.81,3.75-4.59c-0.84,0.07-1.77,0.18-2.81,0.31c-0.14,0.07-0.24,0.1-0.31,0.1l-1.04-2.92
		c0.83-0.49,2.36-3.13,4.59-7.93l3.13,1.25c-1.53,2.71-1.64,2.92-0.31,0.63C179.65,5.07,178.47,7.02,177.42,8.62L177.42,8.62z"/>
	<path class="st0" d="M135.39,11.12l0.21-5.84h-3.86l-0.62,5.84H135.39L135.39,11.12z M130.9,14.25l-0.63,7.2h4.59l0.31-7.2H130.9
		L130.9,14.25z M124.85,14.25v-3.13h2.92l0.52-5.84h-3.34V2.15h14.18l-0.83,19.29h1.77v2.92h-17.1v-1.15
		c-2.44,0.28-4.69,0.63-6.78,1.04l-0.52-3.13c1.81-0.14,4.73-0.52,8.76-1.15c0,0.21-0.04,0.49-0.1,0.84c0,0.28,0,0.49,0,0.63h2.6
		l0.62-7.2H124.85L124.85,14.25z M120.47,15.39c1.39-0.21,2.75-0.42,4.07-0.62c-0.14,0.76-0.21,1.77-0.21,3.02
		c-3.48,0.42-5.84,0.77-7.09,1.04l-1.25-2.92c0.84-0.56,2.05-2.09,3.65-4.59c-1.46,0.07-2.47,0.21-3.03,0.42l-1.04-2.92
		c0.84-0.56,2.36-3.2,4.59-7.93l3.13,1.25c-0.14,0.28-0.38,0.66-0.73,1.15c-0.97,1.74-2.02,3.51-3.13,5.32c0.63,0,1.29,0,1.98,0
		c0.21-0.42,0.59-1.08,1.15-1.98c0.28-0.56,0.49-0.97,0.63-1.25l2.92,1.36C123.74,10.63,121.86,13.52,120.47,15.39L120.47,15.39z"/>
	<path class="st0" d="M138.19,71.95l2.97-3.56c2.06,1.7,4.21,2.78,6.82,2.78c2.05,0,3.3-0.82,3.3-2.16v-0.06
		c0-1.28-0.78-1.93-4.6-2.91c-4.6-1.18-7.57-2.45-7.57-6.98v-0.07c0-4.14,3.33-6.89,8-6.89c3.33,0,6.17,1.04,8.49,2.9l-2.61,3.79
		c-2.02-1.4-4.01-2.25-5.94-2.25c-1.93,0-2.94,0.88-2.94,1.99v0.07c0,1.5,0.98,1.99,4.93,3c4.63,1.21,7.25,2.87,7.25,6.85v0.06
		c0,4.54-3.46,7.09-8.39,7.09C144.43,75.61,140.93,74.4,138.19,71.95"/>
	<polygon class="st0" points="160.02,52.43 165.05,52.43 165.05,61.47 174.32,61.47 174.32,52.43 179.35,52.43 179.35,75.28 
		174.32,75.28 174.32,66.11 165.05,66.11 165.05,75.28 160.02,75.28 160.02,52.43 	"/>
	<path class="st0" d="M197.33,65.72l-3.04-7.41l-3.04,7.41H197.33L197.33,65.72z M192.04,52.27h4.63l9.79,23.01h-5.26l-2.09-5.13
		h-9.66l-2.09,5.13h-5.13L192.04,52.27L192.04,52.27z"/>
	<polygon class="st0" points="209.37,52.43 214,52.43 224.71,66.5 224.71,52.43 229.67,52.43 229.67,75.28 225.39,75.28 
		214.33,60.76 214.33,75.28 209.37,75.28 209.37,52.43 	"/>
	<path class="st0" d="M233.52,63.92v-0.06c0-6.5,5.06-11.82,11.98-11.82c4.11,0,6.59,1.11,8.97,3.14l-3.16,3.82
		c-1.76-1.47-3.33-2.32-5.97-2.32c-3.66,0-6.56,3.23-6.56,7.12v0.07c0,4.18,2.87,7.25,6.92,7.25c1.83,0,3.46-0.46,4.73-1.37v-3.26
		h-5.06v-4.34h9.92v9.92c-2.35,1.99-5.58,3.62-9.76,3.62C238.41,75.67,233.52,70.68,233.52,63.92"/>
	<polygon class="st0" points="259.49,52.43 264.52,52.43 264.52,61.47 273.79,61.47 273.79,52.43 278.82,52.43 278.82,75.28 
		273.79,75.28 273.79,66.11 264.52,66.11 264.52,75.28 259.49,75.28 259.49,52.43 	"/>
	<path class="st0" d="M296.8,65.72l-3.03-7.41l-3.04,7.41H296.8L296.8,65.72z M291.51,52.27h4.63l9.79,23.01h-5.26l-2.09-5.13h-9.66
		l-2.09,5.13h-5.13L291.51,52.27L291.51,52.27z"/>
	<polygon class="st0" points="308.99,52.45 314.02,52.45 314.02,75.31 308.99,75.31 308.99,52.45 	"/>
	<polygon class="st0" points="129.77,84.16 128.89,84.16 128.89,43.9 129.77,43.9 129.77,84.16 	"/>
	<polygon class="st0" points="50.94,52.42 55.58,52.42 66.29,66.5 66.29,52.42 71.26,52.42 71.26,75.28 66.98,75.28 55.91,60.74 
		55.91,75.28 50.94,75.28 50.94,52.42 	"/>
	<polygon class="st0" points="82.56,66.27 73.77,52.42 79.65,52.42 85.11,61.6 90.66,52.42 96.38,52.42 87.59,66.17 87.59,75.28 
		82.56,75.28 82.56,66.27 	"/>
	<path class="st0" d="M98.53,65.48V52.42h5.03v12.94c0,3.72,1.86,5.65,4.93,5.65c3.07,0,4.93-1.87,4.93-5.49v-13.1h5.03v12.91
		c0,6.92-3.89,10.32-10.03,10.32C102.28,75.64,98.53,72.21,98.53,65.48L98.53,65.48z"/>
	<polygon class="st1" points="32.47,82.79 4.63,82.79 4.63,48.49 32.47,48.49 32.47,82.79 	"/>
	<path class="st0" d="M17.99,64.89c-4.13-2.46-3.71-5.98-2-8.56c0.04-0.05,0.05-0.14,0.04-0.25c-0.07-0.61-0.74-2.17-1.02-2.59
		c-0.07-0.11-0.13-0.1-0.14-0.02c-0.02,0.7-0.82,2.46-2.05,4.49c-1.3,2.16-1.3,6.85,5.16,7.03C18.03,64.99,18.05,64.93,17.99,64.89
		L17.99,64.89z M19.09,64.71c-2.47-5.27,2.46-8.67,3.27-9.41c0.11-0.1,0.08-0.2,0.08-0.32c0-1.66-0.95-4.34-1.26-4.73
		c-0.04-0.06-0.08-0.04-0.1,0.03c-0.42,1.64-2.67,4.07-3.12,4.6c-3.81,4.53-2.94,7.29,1.04,9.89
		C19.06,64.81,19.12,64.77,19.09,64.71L19.09,64.71z M19.89,64.49c1.17-5.59,5.71-5.73,6.12-6.78c0.63-1.65-0.53-4.59-0.82-4.94
		c-0.03-0.04-0.07-0.01-0.08,0.02c-0.62,1.36-1.62,2.64-2.35,3.24c-1.03,0.83-4.98,3.76-2.96,8.47
		C19.82,64.55,19.88,64.54,19.89,64.49L19.89,64.49z M20.7,64.98c7.36,0.27,7.89-6.45,7.92-8.96c0-0.15-0.07-0.16-0.1-0.06
		c-0.22,0.52-1.18,2.4-3.83,3.53c-2.37,1.02-3.8,3.33-4.05,5.4C20.62,64.95,20.67,64.97,20.7,64.98L20.7,64.98z M22.38,67.49V65.8
		h-5.81v1.69H22.38L22.38,67.49L22.38,67.49z M18.98,79.45c0.05,0.28,0.66,0.42,0.79,0l1.41-11.15h-3.42L18.98,79.45L18.98,79.45
		L18.98,79.45z M40.5,84.16H0.25V43.9H40.5V84.16L40.5,84.16L40.5,84.16z"/>
</g>
</svg>
